<?xml version="1.0" encoding="UTF-8"?>
<svg width="37px" height="27px" viewBox="0 0 37 27" version="1.1" xmlns="http://www.w3.org/2000/svg" xmlns:xlink="http://www.w3.org/1999/xlink">
    <!-- Generator: Sketch 49.1 (51147) - http://www.bohemiancoding.com/sketch -->
    <title>ico_board</title>
    <desc>Created with Sketch.</desc>
    <defs></defs>
    <g id="Page-1" stroke="none" stroke-width="1" fill="none" fill-rule="evenodd" stroke-linejoin="round">
        <g id="Artboard" transform="translate(-717.000000, -624.000000)" stroke="#252248" stroke-width="1.5">
            <g id="ico_board" transform="translate(718.000000, 625.000000)">
                <path d="M28.4263158,11.7194737 C28.4332237,11.8848026 28.4364474,12.0515132 28.4364474,12.2182237 C28.4364474,18.9653947 22.9663158,24.4359868 16.2182237,24.4359868 C9.47059211,24.4359868 4,18.9653947 4,12.2182237 C4,5.47013158 9.47059211,0 16.2182237,0 C19.7191447,0 22.8760526,1.47230263 25.1036184,3.83157895" id="Stroke-1"></path>
                <path d="M27.1749342,6.99809664 L31.2943421,5.35125453 C31.2943421,5.35125453 33.3584211,4.47164927 34.3978289,5.49632032 C34.3978289,5.49632032 35.3009211,6.663294 33.6876974,7.40382032 L21.3902632,12.3231624 C21.3902632,12.3231624 19.1875658,13.1627019 18.0938158,12.1937545 L15,9.42322821 C15,9.42322821 15.8363158,8.86138611 17.1013816,9.24039927 L18.6252632,9.73546506 C18.6252632,9.73546506 19.5734868,10.0559914 20.7266447,9.54158348 L22.6585526,8.71493874 L18.6026974,5.298294 C18.6026974,5.298294 20.1224342,4.68303085 21.8438816,5.37934664 C21.8438816,5.37934664 26.1396711,7.13210979 27.1749342,6.99809664 Z" id="Stroke-3"></path>
                <path d="M1.44795931,14 C1.44795931,14 -6.5882249,22.67125 15.2034198,14.2855263" id="Stroke-5" stroke-linecap="round"></path>
            </g>
        </g>
    </g>
</svg>