<?xml version="1.0" encoding="UTF-8"?>
<svg width="42px" height="39px" viewBox="0 0 42 39" version="1.1" xmlns="http://www.w3.org/2000/svg" xmlns:xlink="http://www.w3.org/1999/xlink">
    <!-- Generator: Sketch 49.1 (51147) - http://www.bohemiancoding.com/sketch -->
    <title>ico_beer</title>
    <desc>Created with Sketch.</desc>
    <defs></defs>
    <g id="Page-1" stroke="none" stroke-width="1" fill="none" fill-rule="evenodd">
        <g id="Artboard" transform="translate(-599.000000, -385.000000)">
            <g id="ico_beer" transform="translate(600.000000, 386.000000)">
                <path d="M20.0705894,2.75862876 L20.0693773,0.151334579" id="Stroke-1" stroke="#252248" stroke-width="1.5" stroke-linecap="round" stroke-linejoin="round"></path>
                <path d="M23.5726182,3.69912135 L24.9762662,1.50273964" id="Stroke-3" stroke="#252248" stroke-width="1.5" stroke-linecap="round" stroke-linejoin="round"></path>
                <path d="M16.5673485,3.69912135 L15.1637005,1.50273964" id="Stroke-5" stroke="#252248" stroke-width="1.5" stroke-linecap="round" stroke-linejoin="round"></path>
                <path d="M6.3994466,29.8209121 L4.56731031,35.2882298" id="Stroke-7" stroke="#252248" stroke-width="1.5" stroke-linejoin="round"></path>
                <path d="M0.151516398,33.8775515 L8.94067964,36.8236364" id="Stroke-9" stroke="#252248" stroke-width="1.5" stroke-linecap="round" stroke-linejoin="round"></path>
                <path d="M14.9385472,24.5717174 L18.2361501,7.95339879 L10.1306288,5.2370128 L2.74814383,20.4862292 C0.860855569,24.9056595 3.02147941,28.5056891 6.45241674,29.6553956 L6.45605313,29.6572138 C9.88820259,30.8069202 13.781568,29.2353921 14.9385472,24.5717174 Z" id="Stroke-11" stroke="#252248" stroke-width="1.5" stroke-linecap="round" stroke-linejoin="round"></path>
                <path d="M6.84338965,22.6013981 C6.7597526,22.849279 6.4936898,22.9820073 6.24580898,22.8983703 C5.99914028,22.8159453 5.86519978,22.5492765 5.9476247,22.3013957 C6.03126176,22.0535148 6.29914275,21.9201804 6.54581145,22.0038174 C6.79369227,22.0862424 6.92642064,22.3529112 6.84338965,22.6013981" id="Fill-13" fill="#304353"></path>
                <path d="M6.84338965,22.6013981 C6.7597526,22.849279 6.4936898,22.9820073 6.24580898,22.8983703 C5.99914028,22.8159453 5.86519978,22.5492765 5.9476247,22.3013957 C6.03126176,22.0535148 6.29914275,21.9201804 6.54581145,22.0038174 C6.79369227,22.0862424 6.92642064,22.3529112 6.84338965,22.6013981 Z" id="Stroke-15" stroke="#252248" stroke-width="1.5"></path>
                <path d="M11.8540369,21.8579981 C11.771006,22.1058789 11.5049432,22.2392133 11.2570623,22.1561823 C11.0097876,22.0725453 10.8758471,21.8064825 10.9588781,21.5586017 C11.0425151,21.3101148 11.3103961,21.1779925 11.5570648,21.2604174 C11.8049456,21.3434484 11.937674,21.6101172 11.8540369,21.8579981" id="Fill-17" fill="#304353"></path>
                <path d="M11.8540369,21.8579981 C11.771006,22.1058789 11.5049432,22.2392133 11.2570623,22.1561823 C11.0097876,22.0725453 10.8758471,21.8064825 10.9588781,21.5586017 C11.0425151,21.3101148 11.3103961,21.1779925 11.5570648,21.2604174 C11.8049456,21.3434484 11.937674,21.6101172 11.8540369,21.8579981 Z" id="Stroke-19" stroke="#252248" stroke-width="1.5"></path>
                <path d="M10.8535439,17.7942677 C10.7705129,18.0415424 10.5044501,18.1748768 10.2559632,18.0918459 C10.0092945,18.0088149 9.875354,17.7415399 9.95838498,17.4936591 C10.041416,17.2457783 10.309903,17.1130499 10.5565717,17.1960809 C10.8044526,17.2785058 10.9365749,17.5457808 10.8535439,17.7942677" id="Fill-21" fill="#304353"></path>
                <path d="M10.8535439,17.7942677 C10.7705129,18.0415424 10.5044501,18.1748768 10.2559632,18.0918459 C10.0092945,18.0088149 9.875354,17.7415399 9.95838498,17.4936591 C10.041416,17.2457783 10.309903,17.1130499 10.5565717,17.1960809 C10.8044526,17.2785058 10.9365749,17.5457808 10.8535439,17.7942677 Z" id="Stroke-23" stroke="#252248" stroke-width="1.5"></path>
                <path d="M17.1571109,13.2055632 L9.20249998,13.2055632" id="Stroke-25" stroke="#252248" stroke-width="1.5"></path>
                <path d="M25.7533029,13.2055632 L33.7079138,13.2055632" id="Stroke-27" stroke="#252248" stroke-width="1.5"></path>
                <path d="M33.7402171,29.8209121 L35.5723534,35.2882298" id="Stroke-29" stroke="#252248" stroke-width="1.5" stroke-linejoin="round"></path>
                <path d="M39.9881473,33.8775515 L31.198984,36.8236364" id="Stroke-31" stroke="#252248" stroke-width="1.5" stroke-linecap="round" stroke-linejoin="round"></path>
                <path d="M25.2011165,24.5717174 L21.9035136,7.95339879 L30.0090348,5.2370128 L37.3915198,20.4862292 C39.2788081,24.9056595 37.1181843,28.5056891 33.6872469,29.6553956 L33.6836105,29.6572138 C30.2514611,30.8069202 26.3580957,29.2353921 25.2011165,24.5717174 Z" id="Stroke-33" stroke="#252248" stroke-width="1.5" stroke-linecap="round" stroke-linejoin="round"></path>
                <path d="M33.1459698,22.1533338 C33.2296068,22.4012147 33.4956696,22.5345491 33.7435504,22.450912 C33.9902191,22.3678811 34.1241596,22.1012122 34.0417347,21.8539374 C33.9580976,21.6054505 33.6902167,21.4727222 33.443548,21.5557532 C33.1956671,21.6381781 33.0629388,21.905453 33.1459698,22.1533338" id="Fill-35" fill="#304353"></path>
                <path d="M33.1459698,22.1533338 C33.2296068,22.4012147 33.4956696,22.5345491 33.7435504,22.450912 C33.9902191,22.3678811 34.1241596,22.1012122 34.0417347,21.8539374 C33.9580976,21.6054505 33.6902167,21.4727222 33.443548,21.5557532 C33.1956671,21.6381781 33.0629388,21.905453 33.1459698,22.1533338 Z" id="Stroke-37" stroke="#252248" stroke-width="1.5"></path>
                <path d="M28.1148374,21.3289028 C28.1978684,21.5761776 28.4639312,21.709512 28.711812,21.626481 C28.9590868,21.54345 29.0930273,21.2761751 29.0099963,21.0289003 C28.9263593,20.7810195 28.6584783,20.6476851 28.4118096,20.7307161 C28.1639287,20.813747 28.0312004,21.0804159 28.1148374,21.3289028" id="Fill-39" fill="#304353"></path>
                <path d="M28.1148374,21.3289028 C28.1978684,21.5761776 28.4639312,21.709512 28.711812,21.626481 C28.9590868,21.54345 29.0930273,21.2761751 29.0099963,21.0289003 C28.9263593,20.7810195 28.6584783,20.6476851 28.4118096,20.7307161 C28.1639287,20.813747 28.0312004,21.0804159 28.1148374,21.3289028 Z" id="Stroke-41" stroke="#252248" stroke-width="1.5"></path>
                <path d="M30.4219473,17.7629341 C30.5049783,18.0108149 30.7710411,18.1435433 31.019528,18.0605123 C31.2661967,17.9774813 31.4001372,17.7108124 31.3171062,17.4629316 C31.2340752,17.2144447 30.9655882,17.0823224 30.7189195,17.1653534 C30.4710386,17.2477783 30.3389163,17.5144472 30.4219473,17.7629341" id="Fill-43" fill="#304353"></path>
                <path d="M30.4219473,17.7629341 C30.5049783,18.0108149 30.7710411,18.1435433 31.019528,18.0605123 C31.2661967,17.9774813 31.4001372,17.7108124 31.3171062,17.4629316 C31.2340752,17.2144447 30.9655882,17.0823224 30.7189195,17.1653534 C30.4710386,17.2477783 30.3389163,17.5144472 30.4219473,17.7629341 Z" id="Stroke-45" stroke="#252248" stroke-width="1.5"></path>
            </g>
        </g>
    </g>
</svg>