<?xml version="1.0" encoding="UTF-8"?>
<svg width="37px" height="29px" viewBox="0 0 37 29" version="1.1" xmlns="http://www.w3.org/2000/svg" xmlns:xlink="http://www.w3.org/1999/xlink">
    <!-- Generator: Sketch 49.1 (51147) - http://www.bohemiancoding.com/sketch -->
    <title>ico_fiwi</title>
    <desc>Created with Sketch.</desc>
    <defs></defs>
    <g id="Page-1" stroke="none" stroke-width="1" fill="none" fill-rule="evenodd">
        <g id="Artboard" transform="translate(-654.000000, -689.000000)">
            <g id="ico_fiwi" transform="translate(655.000000, 690.000000)">
                <path d="M0.13671875,26.4708281 L34.4974219,26.4708281" id="Stroke-1" stroke="#252248" stroke-width="1.5" stroke-linecap="round"></path>
                <path d="M1.03392187,3.96484375 C1.03392187,1.859375 2.75657812,0.13671875 4.86204687,0.13671875 L29.77275,0.13671875 C31.8776719,0.13671875 33.600875,1.859375 33.600875,3.96484375 L33.600875,18.6249219 C33.600875,20.7309375 31.8776719,22.4530469 29.77275,22.4530469 L4.86204687,22.4530469 C2.75657812,22.4530469 1.03392187,20.7309375 1.03392187,18.6249219 L1.03392187,3.96484375 Z" id="Stroke-3" stroke="#252248" stroke-width="1.5" stroke-linejoin="round"></path>
                <path d="M12.7191094,13.3776016 C13.6493437,11.8102578 15.3539531,10.7569766 17.3079375,10.7569766 C19.2739531,10.7569766 20.9840313,11.8195547 21.9104375,13.3989297" id="Stroke-5" stroke="#252248" stroke-width="1.5" stroke-linecap="round" stroke-linejoin="round"></path>
                <path d="M9.39301563,9.68996875 C11.2611406,7.38489062 14.112,5.90996875 17.3079375,5.90996875 C20.5197344,5.90996875 23.3755156,7.39473437 25.2409063,9.71020312" id="Stroke-7" stroke="#252248" stroke-width="1.5" stroke-linecap="round" stroke-linejoin="round"></path>
                <path d="M17.9774766,16.0957344 C17.9774766,16.4615937 17.6838047,16.7563594 17.3173984,16.7563594 C16.9531797,16.7563594 16.6562266,16.4615937 16.6562266,16.0957344 C16.6562266,15.7293281 16.9531797,15.4345625 17.3173984,15.4345625 C17.6838047,15.4345625 17.9774766,15.7293281 17.9774766,16.0957344" id="Fill-9" fill="#304353"></path>
                <path d="M17.9774766,16.0957344 C17.9774766,16.4615937 17.6838047,16.7563594 17.3173984,16.7563594 C16.9531797,16.7563594 16.6562266,16.4615937 16.6562266,16.0957344 C16.6562266,15.7293281 16.9531797,15.4345625 17.3173984,15.4345625 C17.6838047,15.4345625 17.9774766,15.7293281 17.9774766,16.0957344 Z" id="Stroke-11" stroke="#252248" stroke-width="1.5"></path>
            </g>
        </g>
    </g>
</svg>