<?xml version="1.0" encoding="UTF-8"?>
<svg width="37px" height="44px" viewBox="0 0 37 44" version="1.1" xmlns="http://www.w3.org/2000/svg" xmlns:xlink="http://www.w3.org/1999/xlink">
    <!-- Generator: Sketch 49.1 (51147) - http://www.bohemiancoding.com/sketch -->
    <title>ico_food</title>
    <desc>Created with Sketch.</desc>
    <defs></defs>
    <g id="Page-1" stroke="none" stroke-width="1" fill="none" fill-rule="evenodd">
        <g id="Artboard" transform="translate(-654.000000, -377.000000)">
            <g id="ico_food" transform="translate(655.000000, 378.000000)">
                <path d="M27.430114,30.2244649 C25.4916053,28.3473596 25.9355526,26.0834123 25.9355526,26.0834123 L26.6748509,21.1385877" id="Stroke-1" stroke="#252248" stroke-width="1.5"></path>
                <path d="M0.153508772,20.8639912 L32.7999123,20.8639912" id="Stroke-3" stroke="#252248" stroke-width="1.5" stroke-linecap="round"></path>
                <polyline id="Stroke-5" stroke="#252248" stroke-width="1.5" stroke-linejoin="round" points="5.45944737 20.8832105 13.8797105 30.2165439 24.9532193 36.7578596"></polyline>
                <path d="M9.49236842,20.9491579 L16.2424561,25.8074035 C16.2424561,25.8074035 18.8631579,27.1073158 21.9855263,25.1841579 L23.4377193,21.0154737" id="Stroke-7" stroke="#252248" stroke-width="1.5"></path>
                <polyline id="Stroke-9" stroke="#252248" stroke-width="1.5" stroke-linecap="square" points="31.2489211 41.3388684 26.9875175 39.6822018 30.6747982 30.200886 34.9362018 31.8587807"></polyline>
                <path d="M16.4767105,2.75658772 C8.19583333,2.75658772 1.48258772,9.80816667 1.48258772,17.3761491 L31.4702193,17.3761491 C31.4702193,9.80816667 24.7575877,2.75658772 16.4767105,2.75658772 Z" id="Stroke-11" stroke="#252248" stroke-width="1.5" stroke-linecap="round"></path>
                <path d="M12.8362807,6.72982456 C10.7632982,7.62631579 9.09312281,9.19394737 8.18066667,11.1557895" id="Stroke-13" stroke="#252248" stroke-width="1.5" stroke-linecap="round"></path>
                <path d="M17.1339123,0.811324561 C17.1339123,1.17544737 16.8410175,1.46834211 16.4768947,1.46834211 C16.114614,1.46834211 15.8192632,1.17544737 15.8192632,0.811324561 C15.8192632,0.446587719 16.114614,0.153692982 16.4768947,0.153692982 C16.8410175,0.153692982 17.1339123,0.446587719 17.1339123,0.811324561" id="Fill-15" fill="#252248"></path>
                <path d="M17.1339123,0.811324561 C17.1339123,1.17544737 16.8410175,1.46834211 16.4768947,1.46834211 C16.114614,1.46834211 15.8192632,1.17544737 15.8192632,0.811324561 C15.8192632,0.446587719 16.114614,0.153692982 16.4768947,0.153692982 C16.8410175,0.153692982 17.1339123,0.446587719 17.1339123,0.811324561 Z" id="Stroke-17" stroke="#252248" stroke-width="1.5"></path>
            </g>
        </g>
    </g>
</svg>