<?xml version="1.0" encoding="UTF-8"?>
<svg width="37px" height="37px" viewBox="0 0 37 37" version="1.1" xmlns="http://www.w3.org/2000/svg" xmlns:xlink="http://www.w3.org/1999/xlink">
    <!-- Generator: Sketch 49.1 (51147) - http://www.bohemiancoding.com/sketch -->
    <title>ico_parking</title>
    <desc>Created with Sketch.</desc>
    <defs></defs>
    <g id="Page-1" stroke="none" stroke-width="1" fill="none" fill-rule="evenodd">
        <g id="Artboard" transform="translate(-654.000000, -299.000000)" stroke="#252248" stroke-width="1.5">
            <g id="ico_parking" transform="translate(655.000000, 300.000000)">
                <path d="M18.6031176,16.4344216 C19.8775294,16.4344216 21.2198824,15.6294216 21.2198824,13.9851078 C21.2198824,12.3751078 20.1122353,11.435598 18.2332157,11.435598 L14.3420392,11.435598 L14.3420392,16.4344216 L18.6031176,16.4344216 Z M6.82527451,10.1941275 C6.82527451,6.9727549 8.23556863,5.59746078 11.2201765,5.59746078 L18.1995882,5.59746078 C24.1042941,5.59746078 28.7366471,7.40991176 28.7366471,13.9521667 C28.7366471,20.4614804 24.1042941,22.2718725 18.1995882,22.2718725 L14.3420392,22.2718725 L14.3420392,26.1651078 C14.3420392,28.7503039 12.999,30.1921667 10.5833137,30.1921667 C8.16831373,30.1921667 6.82527451,28.7503039 6.82527451,26.1651078 L6.82527451,10.1941275 Z" id="Stroke-1"></path>
                <path d="M34.8283627,30.7105098 C34.8283627,32.975902 32.9761078,34.8281569 30.7107157,34.8281569 L4.28914706,34.8281569 C2.02512745,34.8281569 0.1715,32.975902 0.1715,30.7105098 L0.1715,4.28894118 C0.1715,2.02492157 2.02512745,0.171294118 4.28914706,0.171294118 L30.7107157,0.171294118 C32.9761078,0.171294118 34.8283627,2.02492157 34.8283627,4.28894118 L34.8283627,30.7105098 Z" id="Stroke-3" stroke-linejoin="round"></path>
            </g>
        </g>
    </g>
</svg>